<svg width="240" height="40" viewBox="0 0 240 40" fill="none" xmlns="http://www.w3.org/2000/svg">
<g opacity="0.8">
<g filter="url(#filter0_d_192_636)">
<path d="M19.9999 16.6667C19.9999 15.9594 19.719 15.2811 19.2189 14.781C18.7188 14.281 18.0405 14 17.3333 14H13.3333V24H17.9999C18.5304 24 19.0391 24.2107 19.4141 24.5858C19.7892 24.9609 19.9999 25.4696 19.9999 26M19.9999 16.6667V26M19.9999 16.6667C19.9999 15.9594 20.2809 15.2811 20.781 14.781C21.2811 14.281 21.9593 14 22.6666 14H26.6666V24H21.9999C21.4695 24 20.9608 24.2107 20.5857 24.5858C20.2106 24.9609 19.9999 25.4696 19.9999 26" stroke="#09090B" stroke-linecap="round" stroke-linejoin="round"/>
<path d="M37.168 25V15.176H38.432V23.864H43.44V25H37.168ZM46.3345 17.896V25H45.1345V17.896H46.3345ZM46.5105 15.752C46.5105 16.168 46.1585 16.52 45.7265 16.52C45.3105 16.52 44.9585 16.168 44.9585 15.752C44.9585 15.32 45.3105 14.984 45.7265 14.984C46.1585 14.984 46.5105 15.32 46.5105 15.752ZM49.6783 24.168V25H48.4622V14.6H49.6783V18.728C50.0303 18.216 50.7983 17.752 51.6783 17.752C53.7583 17.752 54.8783 19.448 54.8783 21.448C54.8783 23.464 53.7583 25.144 51.6783 25.144C50.7983 25.144 50.0303 24.68 49.6783 24.168ZM49.6783 20.008V22.888C50.0463 23.624 50.7503 24.056 51.5023 24.056C52.8623 24.056 53.6623 22.952 53.6623 21.448C53.6623 19.944 52.8623 18.84 51.5023 18.84C50.7503 18.84 50.0463 19.272 49.6783 20.008ZM60.1575 17.864V19.096C59.9655 18.968 59.6615 18.904 59.3575 18.904C58.6055 18.904 57.9495 19.4 57.7095 20.232V25H56.5095V17.896H57.7095V18.824C58.0135 18.216 58.6855 17.752 59.4695 17.752C59.7735 17.752 60.0295 17.8 60.1575 17.864ZM65.4146 21.208V20.28C65.4146 19.4 64.7586 18.856 63.7186 18.856C62.9346 18.856 62.2946 19.096 61.7026 19.48V18.344C62.1826 18.008 63.0306 17.752 63.9106 17.752C65.5906 17.752 66.5826 18.68 66.5826 20.184V25H65.4146V24.472C65.1426 24.76 64.4066 25.128 63.5746 25.128C62.1186 25.128 60.9346 24.264 60.9346 22.856C60.9346 21.528 62.1186 20.632 63.6386 20.632C64.3746 20.632 65.1106 20.936 65.4146 21.208ZM65.4146 23.24V22.504C65.2226 21.976 64.5186 21.624 63.7666 21.624C62.9026 21.624 62.0706 22.008 62.0706 22.856C62.0706 23.72 62.9026 24.12 63.7666 24.12C64.5186 24.12 65.2226 23.768 65.4146 23.24ZM72.2825 17.864V19.096C72.0905 18.968 71.7865 18.904 71.4825 18.904C70.7305 18.904 70.0745 19.4 69.8345 20.232V25H68.6345V17.896H69.8345V18.824C70.1385 18.216 70.8105 17.752 71.5945 17.752C71.8985 17.752 72.1545 17.8 72.2825 17.864ZM75.8711 27.72H74.6871L75.7591 25.048L72.9911 17.896H74.2871L76.3831 23.496L78.4471 17.896H79.6951L75.8711 27.72Z" fill="#1C1C1C"/>
</g>
</g>
<defs>
<filter id="filter0_d_192_636" x="-7" y="-5" width="254" height="54" filterUnits="userSpaceOnUse" color-interpolation-filters="sRGB">
<feFlood flood-opacity="0" result="BackgroundImageFix"/>
<feColorMatrix in="SourceAlpha" type="matrix" values="0 0 0 0 0 0 0 0 0 0 0 0 0 0 0 0 0 0 127 0" result="hardAlpha"/>
<feOffset dy="2"/>
<feGaussianBlur stdDeviation="3.5"/>
<feColorMatrix type="matrix" values="0 0 0 0 0 0 0 0 0 0 0 0 0 0 0 0 0 0 0.075 0"/>
<feBlend mode="normal" in2="BackgroundImageFix" result="effect1_dropShadow_192_636"/>
<feBlend mode="normal" in="SourceGraphic" in2="effect1_dropShadow_192_636" result="shape"/>
</filter>
</defs>
</svg>
