<svg width="48" height="48" viewBox="0 0 48 48" fill="none" xmlns="http://www.w3.org/2000/svg">
<path d="M0 6C0 2.68629 2.68629 0 6 0H42C45.3137 0 48 2.68629 48 6V42C48 45.3137 45.3137 48 42 48H6C2.68629 48 0 45.3137 0 42V6Z" fill="url(#paint0_linear_75_2473)" fill-opacity="0.2"/>
<path d="M15 15V31C15 31.5304 15.2107 32.0391 15.5858 32.4142C15.9609 32.7893 16.4696 33 17 33H33" stroke="black" stroke-width="2" stroke-linecap="round" stroke-linejoin="round"/>
<path d="M19 23.207C19 23.0746 19.0525 22.9477 19.146 22.854L21.146 20.854C21.1924 20.8074 21.2476 20.7705 21.3084 20.7453C21.3691 20.7201 21.4342 20.7071 21.5 20.7071C21.5658 20.7071 21.6309 20.7201 21.6916 20.7453C21.7524 20.7705 21.8076 20.8074 21.854 20.854L25.146 24.146C25.1924 24.1925 25.2476 24.2295 25.3084 24.2547C25.3691 24.2799 25.4342 24.2929 25.5 24.2929C25.5658 24.2929 25.6309 24.2799 25.6916 24.2547C25.7524 24.2295 25.8076 24.1925 25.854 24.146L30.146 19.854C30.2159 19.7839 30.3049 19.7362 30.402 19.7168C30.499 19.6974 30.5996 19.7072 30.691 19.745C30.7824 19.7828 30.8606 19.8469 30.9156 19.9291C30.9706 20.0113 31 20.1081 31 20.207V28C31 28.2652 30.8946 28.5196 30.7071 28.7071C30.5196 28.8946 30.2652 29 30 29H20C19.7348 29 19.4804 28.8946 19.2929 28.7071C19.1054 28.5196 19 28.2652 19 28V23.207Z" stroke="black" stroke-width="2" stroke-linecap="round" stroke-linejoin="round"/>
<defs>
<linearGradient id="paint0_linear_75_2473" x1="8.28571" y1="3.1585e-06" x2="43.0869" y2="17.5955" gradientUnits="userSpaceOnUse">
<stop stop-color="#58BCE4"/>
<stop offset="1" stop-color="#57FA4B"/>
</linearGradient>
</defs>
</svg>
