<svg width="254" height="56" viewBox="0 0 254 56" fill="none" xmlns="http://www.w3.org/2000/svg">
<g filter="url(#filter0_d_192_619)">
<rect x="7" y="5" width="240" height="42" rx="12" fill="white" fill-opacity="0.8"/>
<rect x="7.5" y="5.5" width="239" height="41" rx="11.5" stroke="white"/>
<g clip-path="url(#clip0_192_619)">
<path d="M27.3333 20.6667H22.6666C22.313 20.6667 21.9738 20.8071 21.7238 21.0572C21.4737 21.3072 21.3333 21.6464 21.3333 22V31.3333C21.3333 31.6869 21.4737 32.0261 21.7238 32.2761C21.9738 32.5262 22.313 32.6667 22.6666 32.6667H31.9999C32.3535 32.6667 32.6927 32.5262 32.9427 32.2761C33.1928 32.0261 33.3333 31.6869 33.3333 31.3333V26.6667M32.3333 19.6667C32.5985 19.4014 32.9582 19.2524 33.3333 19.2524C33.7083 19.2524 34.068 19.4014 34.3333 19.6667C34.5985 19.9319 34.7475 20.2916 34.7475 20.6667C34.7475 21.0417 34.5985 21.4014 34.3333 21.6667L27.9999 28L25.3333 28.6667L25.9999 26L32.3333 19.6667Z" stroke="#09090B" stroke-linecap="round" stroke-linejoin="round"/>
</g>
<path d="M52.8 21.176V31H51.872L46.384 23.192V31H45.168V21.176H46.368L51.6 28.648V21.176H52.8ZM60.6088 27.656H55.7128C55.7608 29.304 56.8008 30.088 58.0968 30.088C58.8968 30.088 59.4728 29.896 60.1128 29.416V30.52C59.5368 30.968 58.8008 31.144 57.9528 31.144C55.9048 31.144 54.5288 29.752 54.5288 27.512C54.5288 25.304 55.8088 23.752 57.6968 23.752C59.6168 23.752 60.6088 25.144 60.6088 27.224V27.656ZM57.7128 24.776C56.7688 24.776 56.0008 25.4 55.7768 26.712H59.4408C59.3928 25.672 58.8648 24.776 57.7128 24.776ZM66.7559 23.896L68.2119 29.32L69.7799 23.896H70.9479L68.8519 31H67.6839L66.2119 25.608L64.7239 31H63.5559L61.4599 23.896H62.6599L64.2279 29.32L65.6839 23.896H66.7559ZM75.3256 27.448C75.3256 25.176 76.8296 23.752 78.7496 23.752C79.4376 23.752 80.1576 23.912 80.6536 24.344V25.56C80.1416 25.048 79.5176 24.824 78.8296 24.824C77.5656 24.824 76.5416 25.816 76.5416 27.448C76.5416 29.08 77.5656 30.072 78.8296 30.072C79.5176 30.072 80.1416 29.848 80.6536 29.336V30.552C80.1576 30.984 79.4376 31.144 78.7496 31.144C76.8296 31.144 75.3256 29.72 75.3256 27.448ZM82.322 31V20.6H83.522V24.792C83.938 24.232 84.706 23.752 85.618 23.752C87.234 23.752 88.114 24.792 88.114 26.344V31H86.898V26.536C86.898 25.544 86.402 24.856 85.33 24.856C84.498 24.856 83.778 25.416 83.522 26.184V31H82.322ZM94.1021 27.208V26.28C94.1021 25.4 93.4461 24.856 92.4061 24.856C91.6221 24.856 90.9821 25.096 90.3901 25.48V24.344C90.8701 24.008 91.7181 23.752 92.5981 23.752C94.2781 23.752 95.2701 24.68 95.2701 26.184V31H94.1021V30.472C93.8301 30.76 93.0941 31.128 92.2621 31.128C90.8061 31.128 89.6221 30.264 89.6221 28.856C89.6221 27.528 90.8061 26.632 92.3261 26.632C93.0621 26.632 93.7981 26.936 94.1021 27.208ZM94.1021 29.24V28.504C93.9101 27.976 93.2061 27.624 92.4541 27.624C91.5901 27.624 90.7581 28.008 90.7581 28.856C90.7581 29.72 91.5901 30.12 92.4541 30.12C93.2061 30.12 93.9101 29.768 94.1021 29.24ZM99.2591 24.92V31H98.0591V24.92H96.5711V23.896H98.0591V22.024H99.2591V23.896H100.907V24.92H99.2591Z" fill="#1C1C1C"/>
</g>
<defs>
<filter id="filter0_d_192_619" x="0" y="0" width="254" height="56" filterUnits="userSpaceOnUse" color-interpolation-filters="sRGB">
<feFlood flood-opacity="0" result="BackgroundImageFix"/>
<feColorMatrix in="SourceAlpha" type="matrix" values="0 0 0 0 0 0 0 0 0 0 0 0 0 0 0 0 0 0 127 0" result="hardAlpha"/>
<feOffset dy="2"/>
<feGaussianBlur stdDeviation="3.5"/>
<feColorMatrix type="matrix" values="0 0 0 0 0 0 0 0 0 0 0 0 0 0 0 0 0 0 0.075 0"/>
<feBlend mode="normal" in2="BackgroundImageFix" result="effect1_dropShadow_192_619"/>
<feBlend mode="normal" in="SourceGraphic" in2="effect1_dropShadow_192_619" result="shape"/>
</filter>
<clipPath id="clip0_192_619">
<rect width="16" height="16" fill="white" transform="translate(20 18)"/>
</clipPath>
</defs>
</svg>
