<svg width="48" height="48" viewBox="0 0 48 48" fill="none" xmlns="http://www.w3.org/2000/svg">
<path d="M0 6C0 2.68629 2.68629 0 6 0H42C45.3137 0 48 2.68629 48 6V42C48 45.3137 45.3137 48 42 48H6C2.68629 48 0 45.3137 0 42V6Z" fill="url(#paint0_linear_75_2489)" fill-opacity="0.2"/>
<path d="M23.017 14.814C23.0598 14.5846 23.1815 14.3774 23.3611 14.2283C23.5406 14.0792 23.7666 13.9976 24 13.9976C24.2333 13.9976 24.4593 14.0792 24.6389 14.2283C24.8184 14.3774 24.9401 14.5846 24.983 14.814L26.034 20.372C26.1086 20.7672 26.3006 21.1306 26.585 21.415C26.8693 21.6993 27.2328 21.8914 27.628 21.966L33.186 23.017C33.4153 23.0599 33.6225 23.1816 33.7716 23.3611C33.9207 23.5406 34.0023 23.7667 34.0023 24C34.0023 24.2334 33.9207 24.4594 33.7716 24.6389C33.6225 24.8184 33.4153 24.9402 33.186 24.983L27.628 26.034C27.2328 26.1087 26.8693 26.3007 26.585 26.585C26.3006 26.8694 26.1086 27.2329 26.034 27.628L24.983 33.186C24.9401 33.4154 24.8184 33.6226 24.6389 33.7717C24.4593 33.9208 24.2333 34.0024 24 34.0024C23.7666 34.0024 23.5406 33.9208 23.3611 33.7717C23.1815 33.6226 23.0598 33.4154 23.017 33.186L21.966 27.628C21.8913 27.2329 21.6993 26.8694 21.4149 26.585C21.1306 26.3007 20.7671 26.1087 20.372 26.034L14.814 24.983C14.5846 24.9402 14.3774 24.8184 14.2283 24.6389C14.0792 24.4594 13.9976 24.2334 13.9976 24C13.9976 23.7667 14.0792 23.5406 14.2283 23.3611C14.3774 23.1816 14.5846 23.0599 14.814 23.017L20.372 21.966C20.7671 21.8914 21.1306 21.6993 21.4149 21.415C21.6993 21.1306 21.8913 20.7672 21.966 20.372L23.017 14.814Z" stroke="black" stroke-width="2" stroke-linecap="round" stroke-linejoin="round"/>
<path d="M32 14V18" stroke="black" stroke-width="2" stroke-linecap="round" stroke-linejoin="round"/>
<path d="M34 16H30" stroke="black" stroke-width="2" stroke-linecap="round" stroke-linejoin="round"/>
<path d="M16 34C17.1046 34 18 33.1046 18 32C18 30.8954 17.1046 30 16 30C14.8954 30 14 30.8954 14 32C14 33.1046 14.8954 34 16 34Z" stroke="black" stroke-width="2" stroke-linecap="round" stroke-linejoin="round"/>
<defs>
<linearGradient id="paint0_linear_75_2489" x1="8.28571" y1="3.1585e-06" x2="43.0869" y2="17.5955" gradientUnits="userSpaceOnUse">
<stop stop-color="#FFE600"/>
<stop offset="1" stop-color="#FA4B4B"/>
</linearGradient>
</defs>
</svg>
